<?xml version="1.0" encoding="UTF-8"?>
<svg version="1.1" viewBox="0 0 2048 2048" width="512" height="512" xmlns="http://www.w3.org/2000/svg">
<path transform="translate(269)" d="m0 0h1507l34 6 30 8 29 11 28 14 20 13 11 8 20 16 12 11 8 8 18 22 13 18 14 24 11 23 10 26 8 32 6 35v1495l-5 33-6 25-6 20-10 25-12 23-11 18-7 10-6 8h-2l-2 5-12 14-22 22-14 11-19 14-15 9-23 12-18 8-19 7-32 8-33 6h-510v-723l1-1 302-1 5-27 24-144 25-149 6-36 1-3h-363l-1-1v-242l1-1h363v-360l-376 1-21 1-30 4-23 5-29 8-16 6-19 8-26 13-16 10-11 7-13 10-9 7-10 8-12 11-25 25-21 28-10 15-6 10-10 18-13 27-9 24-7 24-6 28-3 19-2 30-1 256-5 1h-235v360h239l1 1v723h-626l-27-4-24-5-24-7-12-5-9-3-25-12-12-7-15-10-10-7-10-8-11-9-24-24-9-11-15-20-12-20-12-23-6-14-8-22-6-23-6-33-1-5v-1505l6-33 7-27 11-30 8-17 12-21 8-12 9-13 6-7 7-9 12-13 13-13 10-8 20-15 14-9 21-12 19-9 17-6 9-4 21-5 25-5z" fill="#0E6E6F"/>
</svg>
