<?xml version="1.0" encoding="UTF-8"?>
<svg version="1.1" xmlns="http://www.w3.org/2000/svg" width="500" height="500">
<path d="M0 0 C5.63879702 3.84684771 10.0865752 8.32106439 12 15 C12.99039552 22.13767808 11.91536111 28.67204124 7.86328125 34.6875 C5.28250978 37.94399397 2.32389319 40.5308222 -1 43 C-0.13084961 42.75878418 -0.13084961 42.75878418 0.75585938 42.51269531 C14.15577277 39.4513574 29.56465274 42.22091621 41.265625 49.0859375 C51.78516791 56.44961753 58.99126114 65.94493888 62.375 78.375 C65.02458206 93.66529648 61.86999199 107.34822848 53 120 C50.41863427 123.51125253 47.73968869 126.67881391 44 129 C43.34 129 42.68 129 42 129 C42.33 129.99 42.66 130.98 43 132 C43.7777679 142.79900814 42.72600731 151.65609368 35.77734375 160.21875 C28.04380983 167.9692807 14.66845726 171.55470787 4 172 C2.95972656 172.0515625 1.91945313 172.103125 0.84765625 172.15625 C-14.70260996 172.55454924 -29.66013994 170.0907824 -44 164 C-44.86625 163.64292969 -45.7325 163.28585937 -46.625 162.91796875 C-65.94720417 154.15485372 -78.98865336 137.62967675 -86.875 118.375 C-92.24851498 103.48475479 -92.87429446 87.69830671 -86.7109375 72.90625 C-81.67893199 63.11133018 -75.33681579 56.95972714 -65 53 C-59.61027061 51.42776574 -54.63169156 50.61700422 -49 50.625 C-48.27522461 50.62081055 -47.55044922 50.61662109 -46.80371094 50.61230469 C-40.66011348 50.71066605 -35.07049767 51.94422459 -29.265625 53.92822266 C-27.17007461 54.63996824 -27.17007461 54.63996824 -24 55 C-21.21951073 53.3381122 -21.21951073 53.3381122 -19 51 C-16.71114626 49.56559263 -14.37003696 48.30119676 -12 47 C-12.82242188 46.96261719 -13.64484375 46.92523438 -14.4921875 46.88671875 C-25.42970372 46.24259251 -34.02782767 45.17952205 -42.140625 37.296875 C-45.89062465 32.66452249 -47.11735242 28.11635866 -46.89453125 22.19921875 C-45.6931916 13.59952995 -41.96386654 6.74056432 -35.13671875 1.3203125 C-24.13368311 -5.47863822 -11.28991272 -6.34706536 0 0 Z M-38 9 C-42.14148044 14.91259587 -43.4866543 19.82184908 -43 27 C-41.15774285 33.56304111 -37.76749059 36.74780343 -32 40 C-23.4615469 43.94634387 -14.48624388 43.69247411 -5.625 40.75 C0.57878201 38.05997834 4.51304431 34.1624342 7.2421875 28.0390625 C9.3250307 22.43471122 9.34257098 18.31617453 6.99609375 12.9140625 C3.41110704 6.02526452 -1.64212037 2.34932298 -9 0 C-20.03292596 -1.5548854 -30.13936026 0.95220217 -38 9 Z M-20 57 C-17.94930002 58.36713332 -15.85735573 59.67383209 -13.734375 60.92578125 C0.67001684 69.48586551 12.96058333 79.47549983 23 93 C24.02673828 94.30517578 24.02673828 94.30517578 25.07421875 95.63671875 C32.12070796 104.83070943 37.27115508 115.03280906 41 126 C50.34544573 118.75251148 56.7376919 109.75592243 59 98 C60.38877673 84.37099066 58.67389708 73.52785616 50.16796875 62.54296875 C41.19633914 52.01948969 30.57449694 47.18828719 17 45 C3.10585726 44.3184835 -9.40757759 48.12366837 -20 57 Z M-76.3359375 64.18359375 C-85.37287491 74.04785642 -87.73656065 86.03452 -87.2734375 99.0234375 C-86.23091893 114.18463612 -79.80473198 128.4229841 -70 140 C-69.29875 140.969375 -68.5975 141.93875 -67.875 142.9375 C-54.71252498 158.25911919 -33.46292568 165.76724013 -14 168 C1.46746095 168.78654098 18.74603429 168.97899621 31.375 158.75 C36.34719186 153.95898112 38.807108 150.16342874 39.234375 143.15625 C39.28715522 139.42996655 39.17447097 135.72204741 39 132 C38.45472656 132.18175781 37.90945313 132.36351562 37.34765625 132.55078125 C35.75195193 133.08268269 34.15553936 133.61246202 32.55859375 134.140625 C30.96204105 134.67687171 29.36990888 135.22669945 27.78515625 135.796875 C9.0968004 142.42059606 -12.92450662 143.70396369 -31.23828125 135.46875 C-39.24439238 131.21090306 -43.99752021 125.55106244 -47 117 C-51.27558255 102.09429938 -47.24930924 88.66346783 -40.05859375 75.515625 C-36.67546068 69.61040615 -32.79906021 64.79906021 -28 60 C-28 59.34 -28 58.68 -28 58 C-45.04500462 53.34337503 -62.28316842 51.38209863 -76.3359375 64.18359375 Z M-27.0625 62.625 C-38.82220683 74.80206594 -46.43590994 90.94196148 -46.20703125 107.94140625 C-45.62932302 116.47622781 -42.01197571 122.97668094 -36 129 C-22.48782571 139.73025606 -5.51117322 139.11273501 10.75 137.25 C20.46134385 135.78296721 29.71511376 133.39480964 38 128 C32.97511494 111.61230952 24.5800549 98.54366898 13 86 C12.175 85.10410156 11.35 84.20820313 10.5 83.28515625 C1.08308249 73.49095839 -9.68418268 65.71674506 -22 60 C-24.66254765 60 -25.15659857 60.79569508 -27.0625 62.625 Z " fill="#578E8F" transform="translate(263,182)"/>
<path d="M0 0 C4.48369733 2.48443677 7.21378158 5.24161475 9.21875 9.9765625 C10.30430852 13.76923258 10.59835961 17.2761362 9.84375 21.16015625 C8.04981332 24.03045494 6.86111724 25.65147263 3.84375 27.16015625 C-3.45485407 27.83063169 -10.59443399 28.40425772 -16.66015625 23.7734375 C-19.34309327 20.88034875 -20.65109485 18.07150039 -21.15625 14.16015625 C-20.93679526 9.58536905 -19.69744158 6.8152829 -16.78125 3.28515625 C-11.57749114 -0.92741045 -6.50046239 -2.531883 0 0 Z M-16.15625 8.16015625 C-17.5461908 10.94003785 -17.34113204 13.07878885 -17.15625 16.16015625 C-15.54537986 20.37566716 -13.34885424 21.57557572 -9.37890625 23.3984375 C-4.75939272 24.98157483 -0.85740396 24.65632616 3.84375 23.28515625 C6.26206639 20.71569508 6.22047408 19.73688193 6.34375 16.28515625 C6.12125415 12.15394946 5.64911923 9.35247297 2.84375 6.16015625 C-0.58912022 3.31577807 -3.68200411 2.57793764 -8.15625 2.73046875 C-11.76693185 3.50620118 -13.60890225 5.55067807 -16.15625 8.16015625 Z " fill="#5B9291" transform="translate(251.15625,147.83984375)"/>
<path d="M0 0 C0.41507813 0.3403125 0.83015625 0.680625 1.2578125 1.03125 C15.93594897 12.57723183 31.52317594 18.65540301 50 21 C49.01 21.66 48.02 22.32 47 23 C57.89 23.495 57.89 23.495 69 24 C68.67 24.66 68.34 25.32 68 26 C51.32368075 26.67303531 35.43217655 24.55473825 20 18 C19.13375 17.64292969 18.2675 17.28585937 17.375 16.91796875 C9.76792061 13.46796319 3.45751212 8.21256856 -3 3 C-2.01 2.67 -1.02 2.34 0 2 C0 1.34 0 0.68 0 0 Z " fill="#609597" transform="translate(199,328)"/>
<path d="M0 0 C5.62874726 3.83999166 10.10593349 8.32281615 12 15 C12.68940683 20.70086421 12.24689378 25.66362727 10 31 C9.67 30.01 9.34 29.02 9 28 C8.34 28 7.68 28 7 28 C7.10699219 27.443125 7.21398437 26.88625 7.32421875 26.3125 C8.46112096 19.07544505 7.06750415 14.55610714 3.4375 8.3125 C-2.15120604 3.01039427 -7.9216407 0.68775787 -15.625 0.5625 C-20.67950049 0.75989469 -25.18130901 1.48825381 -30 3 C-29.67 2.01 -29.34 1.02 -29 0 C-29.66 -0.33 -30.32 -0.66 -31 -1 C-20.15079056 -4.95372492 -10.33907922 -5.81251717 0 0 Z " fill="#568E8E" transform="translate(263,182)"/>
<path d="M0 0 C12.16153187 1.26554012 21.52951551 7.40412128 29.7109375 16.140625 C33.00009786 20.249269 37 25.50671866 37 31 C36.34 31 35.68 31 35 31 C34.67 31.99 34.34 32.98 34 34 C33.79246094 33.45472656 33.58492188 32.90945313 33.37109375 32.34765625 C28.6376341 20.76157301 20.70799733 11.65235153 9.0625 6.6875 C4.15040254 4.89076733 -0.84494544 3.83358329 -6 3 C-6 2.67 -6 2.34 -6 2 C-4.700625 2.020625 -3.40125 2.04125 -2.0625 2.0625 C-0.70834367 2.08399454 0.64756083 2.07148199 2 2 C2.33 1.67 2.66 1.34 3 1 C2.01 0.67 1.02 0.34 0 0 Z " fill="#5C9293" transform="translate(286,225)"/>
<path d="M0 0 C-0.0625 1.75 -0.0625 1.75 -1 4 C-11.69630256 11.77912914 -24.0478816 12.53898987 -36.8125 11.75 C-38.19846527 11.68148912 -39.58453568 11.61507201 -40.97070312 11.55078125 C-44.3154166 11.38762449 -47.65755422 11.20371783 -51 11 C-50.67 10.34 -50.34 9.68 -50 9 C-49.39639648 8.98018066 -48.79279297 8.96036133 -48.17089844 8.93994141 C-32.09214083 8.38518442 -14.25670376 0 0 0 Z " fill="#4D8788" transform="translate(296,341)"/>
<path d="M0 0 C0 0.66 0 1.32 0 2 C0.66 2.33 1.32 2.66 2 3 C-9.65292374 8.5481563 -20.8816222 12.3015719 -34 12 C-34 11.67 -34 11.34 -34 11 C-32.35 10.67 -30.7 10.34 -29 10 C-30.65 9.67 -32.3 9.34 -34 9 C-34 8.67 -34 8.34 -34 8 C-32.60201172 7.85304688 -32.60201172 7.85304688 -31.17578125 7.703125 C-21.76818236 6.59970592 -12.32830421 5.18071834 -3.76171875 0.875 C-2 0 -2 0 0 0 Z " fill="#5B9192" transform="translate(300,311)"/>
<path d="M0 0 C5.18029908 0.70114429 10.30351936 1.58079647 15.4375 2.5625 C16.53481445 2.77036133 16.53481445 2.77036133 17.65429688 2.98242188 C19.43646318 3.3202181 21.21827002 3.65990988 23 4 C22.01 4.66 21.02 5.32 20 6 C27.26 6.33 34.52 6.66 42 7 C41.67 7.66 41.34 8.32 41 9 C32.49022686 9.34344376 24.41112203 8.97424123 16 7.625 C15.21197998 7.49891357 14.42395996 7.37282715 13.61206055 7.24291992 C8.96274852 6.45166319 4.50976548 5.37931657 0 4 C0.99 3.67 1.98 3.34 3 3 C3 2.34 3 1.68 3 1 C2.01 1.33 1.02 1.66 0 2 C0 1.34 0 0.68 0 0 Z " fill="#6B9D9D" transform="translate(226,345)"/>
<path d="M0 0 C4.70663738 0.53383411 8.0782678 2.68271744 11.9375 5.25 C12.53240234 5.63285156 13.12730469 6.01570312 13.74023438 6.41015625 C17.73789949 9.02283793 21.38147695 11.88420306 25 15 C24.01 15.495 24.01 15.495 23 16 C23 16.66 23 17.32 23 18 C19.60276902 16.45939525 16.83631192 14.44517658 13.875 12.1875 C8.83457952 8.46315163 3.70370629 5.57347269 -2 3 C-1.34 2.67 -0.68 2.34 0 2 C0 1.34 0 0.68 0 0 Z " fill="#5C9291" transform="translate(243,240)"/>
<path d="M0 0 C0.66 0.99 1.32 1.98 2 3 C0.59484661 7.82603277 -2.12409124 12.280672 -4.43359375 16.74023438 C-6.30682088 20.41835202 -7.79478927 24.05293484 -9 28 C-9.66 27.67 -10.32 27.34 -11 27 C-11.66 27.66 -12.32 28.32 -13 29 C-12.49758092 23.2484264 -10.85473737 19.02509795 -8.1875 13.9375 C-7.84396484 13.25623047 -7.50042969 12.57496094 -7.14648438 11.87304688 C-5.01615177 7.71230345 -2.66537578 3.83933904 0 0 Z " fill="#588F90" transform="translate(228,248)"/>
<path d="M0 0 C9.80052345 -0.43665699 18.50096466 -0.18196669 27.90820312 2.84082031 C29.99750742 3.51636076 29.99750742 3.51636076 33 4 C34.98902121 2.76007733 34.98902121 2.76007733 36 1 C36.66 1.33 37.32 1.66 38 2 C36.25 4 36.25 4 34 6 C32.68 6 31.36 6 30 6 C29.67 6.99 29.34 7.98 29 9 C29 8.34 29 7.68 29 7 C22.07 6.01 15.14 5.02 8 4 C8 3.67 8 3.34 8 3 C10.64 3 13.28 3 16 3 C16 2.34 16 1.68 16 1 C10.72 1 5.44 1 0 1 C0 0.67 0 0.34 0 0 Z " fill="#74A5A6" transform="translate(206,233)"/>
<path d="M0 0 C1.5090332 1.1809082 1.5090332 1.1809082 3 3 C3.15698242 5.36010742 3.15698242 5.36010742 2.85546875 8.10546875 C2.75556641 9.08837891 2.65566406 10.07128906 2.55273438 11.08398438 C2.43220703 12.10814453 2.31167969 13.13230469 2.1875 14.1875 C2.07857422 15.22326172 1.96964844 16.25902344 1.85742188 17.32617188 C1.58609893 19.88604485 1.29976097 22.44332698 1 25 C0.34 25 -0.32 25 -1 25 C-1 26.98 -1 28.96 -1 31 C-1.33 31 -1.66 31 -2 31 C-3.89590946 20.09852058 -2.60041284 10.7421816 0 0 Z " fill="#599091" transform="translate(175,258)"/>
<path d="M0 0 C5.34405289 0.50765072 9.5324716 1.89000135 14.3125 4.375 C14.93189453 4.67921875 15.55128906 4.9834375 16.18945312 5.296875 C19.40516391 6.93091696 20.95861924 7.93792887 23 11 C21 11.8125 21 11.8125 18 12 C16.21266275 10.81968295 14.42889712 9.63342876 12.66796875 8.4140625 C6.94156316 5.3789837 0.29406537 4.36727876 -6 3 C-6 2.67 -6 2.34 -6 2 C-4.700625 2.020625 -3.40125 2.04125 -2.0625 2.0625 C-0.70834367 2.08399454 0.64756083 2.07148199 2 2 C2.33 1.67 2.66 1.34 3 1 C2.01 0.67 1.02 0.34 0 0 Z " fill="#5F9796" transform="translate(286,225)"/>
<path d="M0 0 C6.19149728 1.05034329 10.3866381 6.26563596 14.5 10.6875 C16 13 16 13 16 17 C11.73300282 15.33255693 8.91765082 12.2490961 5.75 9.0625 C5.19570313 8.52431641 4.64140625 7.98613281 4.0703125 7.43164062 C2.65116761 6.01424346 1.31858496 4.51139692 0 3 C0 2.01 0 1.02 0 0 Z " fill="#4C8682" transform="translate(266,256)"/>
<path d="M0 0 C0.66 0.33 1.32 0.66 2 1 C1.11623666 3.51174844 0.33558909 5.72038006 -1 8 C-2.65697379 8.69040574 -4.3255761 9.3530635 -6 10 C-8.51160461 12.52204787 -10.76582886 15.23143057 -13 18 C-13.99 17.34 -14.98 16.68 -16 16 C-14.28032649 12.97009905 -12.70761694 10.23672704 -10 8 C-9.34 8 -8.68 8 -8 8 C-8 7.01 -8 6.02 -8 5 C-7.236875 4.731875 -6.47375 4.46375 -5.6875 4.1875 C-3.12619116 3.05575888 -1.80307062 2.08776599 0 0 Z " fill="#478687" transform="translate(244,234)"/>
<path d="M0 0 C0.33 0 0.66 0 1 0 C1 4.29 1 8.58 1 13 C1.66 13 2.32 13 3 13 C2.68916714 19.06124079 -0.32388391 23.36828875 -4 28 C-4.66 28.33 -5.32 28.66 -6 29 C-6 28.01 -6 27.02 -6 26 C-6.66 25.67 -7.32 25.34 -8 25 C-7.57847656 24.45730469 -7.15695312 23.91460937 -6.72265625 23.35546875 C-6.17480469 22.64003906 -5.62695312 21.92460937 -5.0625 21.1875 C-4.51722656 20.47980469 -3.97195313 19.77210938 -3.41015625 19.04296875 C-0.73492843 15.16722318 -0.73232516 11.40334886 -0.4375 6.8125 C-0.35371094 5.54019531 -0.26992188 4.26789063 -0.18359375 2.95703125 C-0.12300781 1.98121094 -0.06242187 1.00539063 0 0 Z " fill="#639A9A" transform="translate(302,315)"/>
<path d="M0 0 C0.97453125 0.00902344 1.9490625 0.01804688 2.953125 0.02734375 C5.34400728 0.05078377 7.73437261 0.08359558 10.125 0.125 C10.125 0.785 10.125 1.445 10.125 2.125 C8.83464844 2.25777344 7.54429687 2.39054688 6.21484375 2.52734375 C4.49738852 2.70565877 2.77994101 2.88404813 1.0625 3.0625 C-0.20883789 3.19301758 -0.20883789 3.19301758 -1.50585938 3.32617188 C-6.31412966 3.82742013 -11.09449483 4.40500533 -15.875 5.125 C-16.205 4.135 -16.535 3.145 -16.875 2.125 C-11.24066322 -0.28429552 -6.0060889 -0.10579831 0 0 Z " fill="#39787A" transform="translate(211.875,233.875)"/>
<path d="M0 0 C0.33 0 0.66 0 1 0 C0.67 7.92 0.34 15.84 0 24 C-3 22 -3 22 -3.546875 19.8984375 C-4.61055505 6.68425842 -4.61055505 6.68425842 -1.5 1.5 C-1.005 1.005 -0.51 0.51 0 0 Z " fill="#498486" transform="translate(217,274)"/>
<path d="M0 0 C0.99 0 1.98 0 3 0 C3.6271777 7.99651568 3.6271777 7.99651568 1.125 12 C-2.08163377 15.01800825 -3.82266632 15.11765812 -8.125 15.0625 C-9.03507813 15.05347656 -9.94515625 15.04445312 -10.8828125 15.03515625 C-11.58148438 15.02355469 -12.28015625 15.01195312 -13 15 C-13.33 14.34 -13.66 13.68 -14 13 C-13.09507812 12.96132812 -13.09507812 12.96132812 -12.171875 12.921875 C-8.43916909 12.65697329 -5.71148407 12.44467754 -2.5 10.4375 C-0.35960278 6.95935451 -0.27075979 4.06139684 0 0 Z " fill="#518788" transform="translate(258,160)"/>
<path d="M0 0 C2.90700687 3.13185823 5 5.6467269 5 10 C4.34 10 3.68 10 3 10 C3 12.64 3 15.28 3 18 C2.67 18 2.34 18 2 18 C1.95101563 17.40832031 1.90203125 16.81664062 1.8515625 16.20703125 C1.35855552 9.8356128 1.35855552 9.8356128 -1 4 C-4.75416088 1.85476521 -8.74852371 1.50017368 -13 1 C-13 0.67 -13 0.34 -13 0 C-3.38997651 -1.46593579 -3.38997651 -1.46593579 0 0 Z " fill="#69999C" transform="translate(255,150)"/>
<path d="M0 0 C4.85110358 4.41009417 8.348107 9.58004353 12 15 C11.01 15.495 11.01 15.495 10 16 C10 15.34 10 14.68 10 14 C9.34 14 8.68 14 8 14 C7.67 14.66 7.34 15.32 7 16 C5.68568828 14.20966193 4.3736047 12.41768797 3.0625 10.625 C2.33160156 9.62726563 1.60070312 8.62953125 0.84765625 7.6015625 C-1 5 -1 5 -2 3 C-1.34 3 -0.68 3 0 3 C0 2.01 0 1.02 0 0 Z " fill="#5E9697" transform="translate(282,270)"/>
<path d="M0 0 C2.89608593 -0.05413245 5.79115195 -0.09373641 8.6875 -0.125 C9.91243164 -0.15013672 9.91243164 -0.15013672 11.16210938 -0.17578125 C15.57092929 -0.2114802 18.98731576 -0.07580814 23 2 C22.67 2.66 22.34 3.32 22 4 C15.07 3.67 8.14 3.34 1 3 C0.67 2.01 0.34 1.02 0 0 Z " fill="#427C7D" transform="translate(266,224)"/>
<path d="M0 0 C0.3403125 0.928125 0.3403125 0.928125 0.6875 1.875 C2.40190477 4.65070297 3.94102695 5.03008172 7 6 C7.99 6.33 8.98 6.66 10 7 C11.72795352 7.06802967 13.45835365 7.08495645 15.1875 7.0625 C16.08855469 7.05347656 16.98960937 7.04445312 17.91796875 7.03515625 C18.94857422 7.01775391 18.94857422 7.01775391 20 7 C19.67 7.66 19.34 8.32 19 9 C17.04036494 9.28912648 15.07800003 9.5725666 13.10546875 9.75390625 C10.98537944 9.9269188 10.98537944 9.9269188 9.00390625 10.6796875 C6.18770088 11.12984118 5.06487881 10.14433385 2.75 8.5625 C2.04359375 8.08941406 1.3371875 7.61632812 0.609375 7.12890625 C0.07828125 6.75636719 -0.4528125 6.38382813 -1 6 C-0.67 4.02 -0.34 2.04 0 0 Z " fill="#609797" transform="translate(234,164)"/>
<path d="M0 0 C1.13480527 3.60993172 1.10015767 6.9842327 1.0625 10.75 C1.05347656 11.92046875 1.04445313 13.0909375 1.03515625 14.296875 C1.02355469 15.18890625 1.01195312 16.0809375 1 17 C0.01 17.33 -0.98 17.66 -2 18 C-2.33 13.05 -2.66 8.1 -3 3 C-3.66 3 -4.32 3 -5 3 C-5 2.34 -5 1.68 -5 1 C-3 0 -3 0 0 0 Z " fill="#488680" transform="translate(305,310)"/>
<path d="M0 0 C-0.99 0.33 -1.98 0.66 -3 1 C-3 1.66 -3 2.32 -3 3 C-4.6029053 3.81498562 -6.20737278 4.62689927 -7.8125 5.4375 C-8.70582031 5.88996094 -9.59914062 6.34242188 -10.51953125 6.80859375 C-13 8 -13 8 -16 9 C-16.33 7.68 -16.66 6.36 -17 5 C-15.58671871 4.18162558 -14.16921654 3.37053781 -12.75 2.5625 C-11.56664062 1.88380859 -11.56664062 1.88380859 -10.359375 1.19140625 C-6.53962594 -0.73744055 -4.10611976 -1.31982421 0 0 Z " fill="#4F898C" transform="translate(261,228)"/>
<path d="M0 0 C-1 2 -1 2 -2.75 2.6328125 C-8.01227458 3.78393506 -13.62932975 5.00295649 -19 4 C-20.7578125 2.48046875 -20.7578125 2.48046875 -22 1 C-14.65623924 0.42240084 -7.36901413 -0.14738028 0 0 Z " fill="#3E7E7D" transform="translate(272,320)"/>
<path d="M0 0 C3.14621682 0.13822199 6.29185566 0.28685084 9.4375 0.4375 C10.33533203 0.47681641 11.23316406 0.51613281 12.15820312 0.55664062 C13.01220703 0.59853516 13.86621094 0.64042969 14.74609375 0.68359375 C15.53685303 0.72025146 16.3276123 0.75690918 17.14233398 0.79467773 C19 1 19 1 20 2 C21.34747084 2.23075082 22.70377565 2.41153063 24.0625 2.5625 C25.361875 2.706875 26.66125 2.85125 28 3 C28 3.33 28 3.66 28 4 C22.39 4.66 16.78 5.32 11 6 C11.66 5.34 12.32 4.68 13 4 C12.01 4 11.02 4 10 4 C8.25986613 3.53961813 6.53096521 3.03562552 4.8125 2.5 C3.91144531 2.2215625 3.01039063 1.943125 2.08203125 1.65625 C1.39496094 1.4396875 0.70789063 1.223125 0 1 C0 0.67 0 0.34 0 0 Z " fill="#76A9AD" transform="translate(247,224)"/>
<path d="M0 0 C0.33 0 0.66 0 1 0 C1 4.29 1 8.58 1 13 C1.66 13 2.32 13 3 13 C2.25 20.625 2.25 20.625 0 24 C-0.33 23.34 -0.66 22.68 -1 22 C-1.66 22.33 -2.32 22.66 -3 23 C-2.690625 21.80375 -2.38125 20.6075 -2.0625 19.375 C-0.62245192 12.99180815 -0.35230768 6.51769209 0 0 Z " fill="#6DA1A4" transform="translate(322,266)"/>
<path d="M0 0 C1.65 1.32 3.3 2.64 5 4 C5.680625 3.2575 5.680625 3.2575 6.375 2.5 C8 1 8 1 10 1 C9.75 3.375 9.75 3.375 9 6 C6.09557968 8.17831524 3.54875053 8.19715281 0 8 C0 5.36 0 2.72 0 0 Z " fill="#4B8684" transform="translate(300,303)"/>
<path d="M0 0 C1.09570312 0.00902344 2.19140625 0.01804688 3.3203125 0.02734375 C4.16335937 0.03894531 5.00640625 0.05054688 5.875 0.0625 C6.205 1.0525 6.535 2.0425 6.875 3.0625 C1.925 3.0625 -3.025 3.0625 -8.125 3.0625 C-8.125 2.4025 -8.125 1.7425 -8.125 1.0625 C-5.36047967 -0.31976016 -3.0788637 -0.03275387 0 0 Z " fill="#498081" transform="translate(246.125,224.9375)"/>
<path d="M0 0 C6.55762712 0.61864407 6.55762712 0.61864407 8.8125 2.5625 C9.204375 3.036875 9.59625 3.51125 10 4 C10.66 4 11.32 4 12 4 C12 4.66 12 5.32 12 6 C6.80408388 5.55966813 3.33664919 5.11696661 -1 2 C-0.67 1.34 -0.34 0.68 0 0 Z " fill="#558D90" transform="translate(217,342)"/>
<path d="M0 0 C2.6875 0.875 2.6875 0.875 5 2 C2.11964908 4.24027294 -0.84866512 6.16172132 -4 8 C-4 7.34 -4 6.68 -4 6 C-5.32 6.33 -6.64 6.66 -8 7 C-5.42215154 4.35247996 -3.08351902 2.05567935 0 0 Z " fill="#669A9A" transform="translate(193,237)"/>
<path d="M0 0 C4.40114397 0.50298788 6.71195019 2.08772731 10 5 C8.265625 6.1171875 8.265625 6.1171875 6 7 C3.859375 6.3203125 3.859375 6.3203125 1.75 5.125 C0.69039062 4.54105469 0.69039062 4.54105469 -0.390625 3.9453125 C-0.92171875 3.63335937 -1.4528125 3.32140625 -2 3 C-1.34 2.67 -0.68 2.34 0 2 C0 1.34 0 0.68 0 0 Z " fill="#679B9C" transform="translate(243,240)"/>
<path d="M0 0 C3.14330223 0.3492558 4.79491452 0.83925733 7.3125 2.8125 C9 5 9 5 9 9 C5.18063472 7.44396229 2.73955562 5.04395069 0 2 C0 1.34 0 0.68 0 0 Z " fill="#498583" transform="translate(273,264)"/>
<path d="M0 0 C1.75 0.125 1.75 0.125 4 1 C8 6.22222222 8 6.22222222 8 9 C4.21304827 8.4590069 2.37254028 6.96567536 0 4 C0 2.68 0 1.36 0 0 Z " fill="#508888" transform="translate(221,306)"/>
<path d="M0 0 C0.99 0 1.98 0 3 0 C3 3.63 3 7.26 3 11 C2.01 11.495 2.01 11.495 1 12 C-1.27678571 3.96428571 -1.27678571 3.96428571 0 0 Z " fill="#4A8480" transform="translate(231,156)"/>
<path d="M0 0 C0.66 0.33 1.32 0.66 2 1 C1.6875 2.875 1.6875 2.875 1 5 C-2.08888522 7.05925681 -2.70935927 7.2390374 -6.1875 7.125 C-8.0746875 7.063125 -8.0746875 7.063125 -10 7 C-10 6.34 -10 5.68 -10 5 C-9.16855469 4.70996094 -9.16855469 4.70996094 -8.3203125 4.4140625 C-7.59585938 4.15367187 -6.87140625 3.89328125 -6.125 3.625 C-5.04605469 3.24214844 -5.04605469 3.24214844 -3.9453125 2.8515625 C-1.81842006 2.06122217 -1.81842006 2.06122217 0 0 Z " fill="#5A918E" transform="translate(263,218)"/>
<path d="M0 0 C3.67420866 0.30618405 4.78135513 0.75771784 7.3125 3.5625 C8.1478125 4.7690625 8.1478125 4.7690625 9 6 C8.01 6.66 7.02 7.32 6 8 C4.99403703 7.0479279 3.99538437 6.08812654 3 5.125 C2.443125 4.59132812 1.88625 4.05765625 1.3125 3.5078125 C0 2 0 2 0 0 Z " fill="#538A8B" transform="translate(306,236)"/>
<path d="M0 0 C0.33 0 0.66 0 1 0 C1 1.65 1 3.3 1 5 C-1.52475462 6.26237731 -3.31200466 6.09856404 -6.125 6.0625 C-7.03507813 6.05347656 -7.94515625 6.04445312 -8.8828125 6.03515625 C-9.58148438 6.02355469 -10.28015625 6.01195312 -11 6 C-11.33 5.34 -11.66 4.68 -12 4 C-11.38511719 3.96261719 -10.77023438 3.92523438 -10.13671875 3.88671875 C-9.32847656 3.82097656 -8.52023438 3.75523437 -7.6875 3.6875 C-6.88699219 3.62949219 -6.08648437 3.57148438 -5.26171875 3.51171875 C-2.62476049 2.91510125 -1.74451753 2.00216935 0 0 Z " fill="#3A7575" transform="translate(256,169)"/>
<path d="M0 0 C3.63 0.33 7.26 0.66 11 1 C10.01 1.66 9.02 2.32 8 3 C9.65 3.33 11.3 3.66 13 4 C13 4.33 13 4.66 13 5 C5.73846154 5.61538462 5.73846154 5.61538462 2 2.5 C1.34 1.675 0.68 0.85 0 0 Z " fill="#67999C" transform="translate(238,348)"/>
<path d="M0 0 C6.27 0 12.54 0 19 0 C19 0.33 19 0.66 19 1 C12.565 1.495 12.565 1.495 6 2 C6 2.33 6 2.66 6 3 C4.02 3 2.04 3 0 3 C0 2.01 0 1.02 0 0 Z " fill="#528B8E" transform="translate(245,320)"/>
<path d="M0 0 C0.66 0.99 1.32 1.98 2 3 C1.1025444 6.06630664 0.26961192 7.73038808 -2 10 C-2 9.34 -2 8.68 -2 8 C-2.99 8.33 -3.98 8.66 -5 9 C-3.7508258 5.54074837 -2.32472205 2.85306797 0 0 Z " fill="#669A9B" transform="translate(228,248)"/>
<path d="M0 0 C-1.44253657 3.36591866 -3.33264727 5.51047079 -6 8 C-6 7.34 -6 6.68 -6 6 C-6.66 6 -7.32 6 -8 6 C-6.98565881 3.46414701 -6.34981128 2.21863205 -4 0.75 C-2 0 -2 0 0 0 Z " fill="#558C91" transform="translate(189,243)"/>
<path d="M0 0 C0.66 0.33 1.32 0.66 2 1 C1.01 3.31 0.02 5.62 -1 8 C-3.31 7.34 -5.62 6.68 -8 6 C-7.4225 5.7525 -6.845 5.505 -6.25 5.25 C-3.6997003 3.83316683 -1.98214299 2.12372463 0 0 Z " fill="#2D7579" transform="translate(244,234)"/>
<path d="M0 0 C0.33 0.66 0.66 1.32 1 2 C0.34 2 -0.32 2 -1 2 C-1 2.66 -1 3.32 -1 4 C-1.680625 3.690625 -2.36125 3.38125 -3.0625 3.0625 C-6.36965912 1.86629351 -9.51545878 1.40994603 -13 1 C-13 0.67 -13 0.34 -13 0 C-4.08139535 -1.36046512 -4.08139535 -1.36046512 0 0 Z " fill="#6DA0A2" transform="translate(255,150)"/>
<path d="M0 0 C1.9375 0.625 1.9375 0.625 4 2 C4.75 5.125 4.75 5.125 5 8 C4.01 8 3.02 8 2 8 C0.23537317 4.91190305 0 3.76687864 0 0 Z " fill="#487F83" transform="translate(178,301)"/>
<path d="M0 0 C3.65316671 1.24976756 4.78065836 1.67098753 7 5 C4.75 5.75 4.75 5.75 2 6 C-0.3125 4.0625 -0.3125 4.0625 -2 2 C-1.34 2 -0.68 2 0 2 C0 1.34 0 0.68 0 0 Z " fill="#6A9BA0" transform="translate(302,231)"/>
<path d="M0 0 C5.75 1.75 5.75 1.75 8 4 C7.01 4 6.02 4 5 4 C4.67 4.66 4.34 5.32 4 6 C1.69 5.01 -0.62 4.02 -3 3 C-2.01 2.67 -1.02 2.34 0 2 C0 1.34 0 0.68 0 0 Z " fill="#629396" transform="translate(257,180)"/>
<path d="M0 0 C2.97 0 5.94 0 9 0 C9.33 0.99 9.66 1.98 10 3 C6.52674819 4.1577506 3.63932552 4.06866652 0 4 C0 3.67 0 3.34 0 3 C1.65 2.67 3.3 2.34 5 2 C3.35 1.67 1.7 1.34 0 1 C0 0.67 0 0.34 0 0 Z " fill="#7DA8AA" transform="translate(266,319)"/>
<path d="M0 0 C2.96175123 0.61277612 4.38058783 1.25372522 7 3 C7 3.66 7 4.32 7 5 C4.625 5.125 4.625 5.125 2 5 C1.34 4.34 0.68 3.68 0 3 C0 2.01 0 1.02 0 0 Z " fill="#528986" transform="translate(222,217)"/>
<path d="M0 0 C0.66 0.33 1.32 0.66 2 1 C1.39816251 3.02045442 0.72693904 5.02111039 0 7 C-0.99 7.495 -0.99 7.495 -2 8 C-2 7.01 -2 6.02 -2 5 C-2.66 4.67 -3.32 4.34 -4 4 C-2.68 2.68 -1.36 1.36 0 0 Z " fill="#5A9296" transform="translate(298,336)"/>
<path d="M0 0 C0.99 0.2165625 0.99 0.2165625 2 0.4375 C5.65599551 1.12299916 9.30622195 1.56175515 13 2 C13 2.33 13 2.66 13 3 C8.71 3 4.42 3 0 3 C0 2.01 0 1.02 0 0 Z " fill="#649A9D" transform="translate(262,225)"/>
<path d="M0 0 C0.33 0 0.66 0 1 0 C1.125 5.75 1.125 5.75 0 8 C-0.99 8 -1.98 8 -3 8 C-2.45276317 4.62537285 -1.9451 2.91765 0 0 Z " fill="#3A7777" transform="translate(321,286)"/>
<path d="M0 0 C2.31 0.33 4.62 0.66 7 1 C7 1.66 7 2.32 7 3 C4.36 3 1.72 3 -1 3 C-0.67 2.01 -0.34 1.02 0 0 Z " fill="#40797D" transform="translate(224,235)"/>
<path d="M0 0 C1.32 0.66 2.64 1.32 4 2 C2.35 3.65 0.7 5.3 -1 7 C-1.625 4.625 -1.625 4.625 -2 2 C-1.34 1.34 -0.68 0.68 0 0 Z " fill="#639A9B" transform="translate(311,301)"/>
<path d="M0 0 C0 0.66 0 1.32 0 2 C1.32 2.33 2.64 2.66 4 3 C1.36 3.66 -1.28 4.32 -4 5 C-3.67 4.01 -3.34 3.02 -3 2 C-3.66 1.67 -4.32 1.34 -5 1 C-2 0 -2 0 0 0 Z " fill="#72A2A5" transform="translate(237,180)"/>
<path d="M0 0 C0.66 0 1.32 0 2 0 C2 0.66 2 1.32 2 2 C2.99 2 3.98 2 5 2 C5 3.32 5 4.64 5 6 C3.68 5.67 2.36 5.34 1 5 C0.67 3.35 0.34 1.7 0 0 Z " fill="#45807E" transform="translate(290,284)"/>
<path d="M0 0 C2.8125 -0.25 2.8125 -0.25 6 0 C7.875 2 7.875 2 9 4 C6.1875 4.25 6.1875 4.25 3 4 C1.125 2 1.125 2 0 0 Z " fill="#78A7A7" transform="translate(269,261)"/>
<path d="M0 0 C1.32 0 2.64 0 4 0 C4.33 0.66 4.66 1.32 5 2 C5.66 2 6.32 2 7 2 C7 2.66 7 3.32 7 4 C5.35 4 3.7 4 2 4 C1.34 2.68 0.68 1.36 0 0 Z " fill="#36747B" transform="translate(222,344)"/>
<path d="M0 0 C1.875 0.25 1.875 0.25 4 1 C5.25 3.0625 5.25 3.0625 6 5 C4.02 4.34 2.04 3.68 0 3 C0 2.01 0 1.02 0 0 Z " fill="#3C7A80" transform="translate(194,326)"/>
<path d="M0 0 C1.65 0 3.3 0 5 0 C5.33 0.99 5.66 1.98 6 3 C5.34 3 4.68 3 4 3 C3.67 3.66 3.34 4.32 3 5 C2.01 3.35 1.02 1.7 0 0 Z " fill="#68989A" transform="translate(190,323)"/>
<path d="M0 0 C4.875 2.75 4.875 2.75 6 5 C4.35 5 2.7 5 1 5 C0.67 3.35 0.34 1.7 0 0 Z " fill="#538988" transform="translate(188,318)"/>
<path d="M0 0 C-0.33 1.65 -0.66 3.3 -1 5 C-1.66 5 -2.32 5 -3 5 C-3 4.34 -3 3.68 -3 3 C-3.66 3 -4.32 3 -5 3 C-5 2.34 -5 1.68 -5 1 C-3 0 -3 0 0 0 Z " fill="#236E6F" transform="translate(305,310)"/>
<path d="M0 0 C1.5625 1 1.5625 1 3 3 C2.96726452 5.76614782 2.49404328 8.26030547 2 11 C1.67 11 1.34 11 1 11 C0.855625 10.05125 0.71125 9.1025 0.5625 8.125 C0.17064601 5.1065506 0.17064601 5.1065506 -1 3 C-0.67 2.01 -0.34 1.02 0 0 Z " fill="#76A6A3" transform="translate(175,258)"/>
<path d="M0 0 C2.64 0.33 5.28 0.66 8 1 C4.86501708 2.85776765 2.62528568 3.20140476 -1 3 C-0.67 2.01 -0.34 1.02 0 0 Z " fill="#357374" transform="translate(238,179)"/>
<path d="M0 0 C1.74627478 2.61941217 2.38722388 4.03824877 3 7 C2.01 6.67 1.02 6.34 0 6 C-0.33 6.66 -0.66 7.32 -1 8 C-1.625 5.6875 -1.625 5.6875 -2 3 C-1.34 2.01 -0.68 1.02 0 0 Z " fill="#75A3A6" transform="translate(178,295)"/>
<path d="M0 0 C0.99 0.33 1.98 0.66 3 1 C4.66362417 1.34820041 6.32995171 1.68404492 8 2 C8 2.33 8 2.66 8 3 C4.7 3 1.4 3 -2 3 C-2 2.34 -2 1.68 -2 1 C-1.34 0.67 -0.68 0.34 0 0 Z " fill="#6B9B9F" transform="translate(205,234)"/>
<path d="M0 0 C2.31 0 4.62 0 7 0 C5.75 1.5 5.75 1.5 4 3 C2.68 3 1.36 3 0 3 C0 2.01 0 1.02 0 0 Z " fill="#558D92" transform="translate(234,224)"/>
<path d="M0 0 C0.33 0 0.66 0 1 0 C1.38909985 1.45463481 1.76088029 2.91391207 2.125 4.375 C2.33382813 5.18710938 2.54265625 5.99921875 2.7578125 6.8359375 C2.83773438 7.55007812 2.91765625 8.26421875 3 9 C2.34 9.66 1.68 10.32 1 11 C1 10.01 1 9.02 1 8 C0.34 8 -0.32 8 -1 8 C-0.67 5.36 -0.34 2.72 0 0 Z " fill="#8CB3B3" transform="translate(271,202)"/>
</svg>
