<?xml version="1.0" encoding="UTF-8"?>
<svg version="1.1" viewBox="0 0 2048 2048" width="512" height="512" xmlns="http://www.w3.org/2000/svg">
<path transform="translate(968)" d="m0 0h109l61 6 45 6 41 7 49 11 33 9 37 11 29 10 26 10 29 12 21 10 15 6 38 19 19 11 20 11 9 6 12 7 26 16 17 12 8 6 19 13 10 8 26 20 13 11 10 8 12 11 11 10 8 7 13 12 6 5 12 12v2l4 2 7 8 15 16 13 15 11 12 8 10 12 14 9 12 12 15 11 16 14 19 21 32 12 19 16 28 6 10 36 72 13 32 14 35 14 41 7 23 13 49 9 41 8 47 5 40 6 64v85l-4 54-6 53-8 49-6 28-9 37-10 36-17 52-14 36-6 15-13 28-11 25-15 29-20 35-12 20-11 17-11 18-9 12-7 10-10 15-7 8-8 11-9 11-4 6-9 10-10 13-8 8-1 2h-2l-2 4-9 10-7 8-11 11-7 8-20 20h-2v2l-8 7-9 9-11 9-13 12-16 13-14 12-11 8-10 8-15 11-18 13-44 29-44 26-80 40-27 11-35 14-20 7-36 12-39 11-47 11-49 9-36 5-56 6-29 2h-65l-42-2-51-5-34-4-35-6-50-10-63-17-36-12-25-9-19-7-19-9-9-3-19-9-9-3-14-7-2-2-7-3-23-12-19-10-16-9-14-9-20-12-8-5-9-3-22 7-33 10-36 12-31 10-33 10-36 12-31 10-33 10-36 12-38 12-26 8-33 11h-2l2-10 12-36 24-71 33-99 9-25 45-135-1-7-29-44-10-15-12-20-14-25-9-16-25-50-13-30-11-27-8-22-9-24-13-44-11-39-13-65-4-25-8-67-2-34-1-10v-92l6-63 6-45 7-40 11-49 10-37 11-35 13-38 5-12 8-20 7-16 8-17 8-19 8-17 12-22 13-23 6-11 4-5 6-12 7-10 9-15 7-11 12-16 8-12 9-13 6-7 9-12 8-10 7-9 8-9 9-12 11-11 7-8 9-11 10-10 7-8 19-19 8-7 11-11 11-9 10-9 15-13 11-9 28-22 19-14 12-9 44-29 28-17 16-9 18-10 48-24 21-10 15-6 11-5 9-3 20-8 16-6 36-12 24-7 25-7 47-11 55-10 41-5 21-2 27-3zm-333 468-18 1-19 3-18 5-21 9-11 7-17 14-11 12-13 13-13 17-6 8-10 15-7 11-8 16-9 19-9 25-7 26-4 19-3 20-2 31v26l2 28 6 36 7 28 14 41 8 20 10 23 14 28 14 24 9 15 11 18 15 22 14 19 7 11 10 13 11 16 16 21 14 19 13 16 8 10 13 16 10 11 8 10 11 12 9 10 10 11 7 8 11 12 54 54 8 7 13 11 12 11 10 9 10 8 13 11 8 6 13 11 10 7 19 14 14 10 16 11 14 9 10 6 14 9 16 9 14 8 18 10 28 14 19 8 24 11 40 16 23 9 29 10 25 9 31 10 43 12 31 7 31 5 20 2h39l23-3 30-7 23-7 18-7 27-12 18-10 16-10 13-9 12-9 12-11 25-25 8-12 6-10 10-21 8-25 8-36 4-27 1-12v-16l-2-20-6-9-8-7-23-12-124-62-8-3-15-7-33-16-21-10-17-7-20-7-6-1h-20l-11 4-11 7-10 10-9 12-10 15-9 12-13 18-6 8-4 6-7 8-8 11-11 13-7 8-11 9-14 6-8 2h-22l-9-3-10-2-10-5-9-3-19-9-6-2-9-4-17-8-9-6-7-3-18-10-15-9-16-10-11-7-11-8-14-10-32-24-11-10-13-10-17-16-14-13-8-7-12-12-7-8-9-10-12-13-22-26-12-16-14-19-20-28-17-26-10-17-8-15-3-15 3-13 6-12 13-16 7-9 15-15 7-8 8-9 9-11 9-9 13-19 6-11 5-15 1-5v-14l-5-15-22-52-20-48-12-30-20-48-13-32-13-30-10-19-9-10-7-6-15-5-11-2z" fill="#106E70"/>
</svg>
